<svg xmlns="http://www.w3.org/2000/svg" xmlns:xlink="http://www.w3.org/1999/xlink" version="1.1" x="0px" y="0px" viewBox="0 0 20 25" enable-background="new 0 0 20 20" xml:space="preserve"><g><path fill="#000000" d="M15,8.1V5c0-2.8-2.2-5-5-5S5,2.2,5,5v3.1c-1.2,1.3-2,3-2,4.9c0,3.9,3.1,7,7,7s7-3.1,7-7   C17,11.1,16.2,9.4,15,8.1z M10,2c1.7,0,3,1.3,3,3v1.7C12.1,6.3,11.1,6,10,6S7.9,6.3,7,6.7V5C7,3.3,8.3,2,10,2z M10,18   c-2.8,0-5-2.2-5-5c0-2.8,2.2-5,5-5s5,2.2,5,5C15,15.8,12.8,18,10,18z"/><path fill="#000000" d="M10,11c-0.6,0-1,0.4-1,1v2c0,0.6,0.4,1,1,1c0.6,0,1-0.4,1-1v-2C11,11.4,10.6,11,10,11z"/></g><text x="0" y="35" fill="#000000" font-size="5px" font-weight="bold" font-family="'Helvetica Neue', Helvetica, Arial-Unicode, Arial, Sans-serif">Created by ProSymbols</text><text x="0" y="40" fill="#000000" font-size="5px" font-weight="bold" font-family="'Helvetica Neue', Helvetica, Arial-Unicode, Arial, Sans-serif">from the Noun Project</text></svg>