<svg xmlns="http://www.w3.org/2000/svg" xmlns:xlink="http://www.w3.org/1999/xlink" version="1.1" x="0px" y="0px" viewBox="0 0 100 125" enable-background="new 0 0 100 100" xml:space="preserve"><g><path d="M50,14.5c-12.3,0-22.2,9.9-22.2,22.2S37.7,58.9,50,58.9c12.3,0,22.2-9.9,22.2-22.2S62.3,14.5,50,14.5z M50,52.2   c-8.6,0-15.5-6.9-15.5-15.5S41.4,21.2,50,21.2c8.6,0,15.5,6.9,15.5,15.5S58.6,52.2,50,52.2z"/><path d="M50,53.3c-17.8,0-32.2,14.4-32.2,32.2h5.7C23.5,70.9,35.4,59,50,59s26.5,11.9,26.5,26.5h5.7C82.2,67.7,67.8,53.3,50,53.3z"/></g><text x="0" y="115" fill="#000000" font-size="5px" font-weight="bold" font-family="'Helvetica Neue', Helvetica, Arial-Unicode, Arial, Sans-serif">Created by Guilhem</text><text x="0" y="120" fill="#000000" font-size="5px" font-weight="bold" font-family="'Helvetica Neue', Helvetica, Arial-Unicode, Arial, Sans-serif">from the Noun Project</text></svg>